<?xml version="1.0" encoding="UTF-8"?>
<!DOCTYPE svg PUBLIC "-//W3C//DTD SVG 1.1//EN" "http://www.w3.org/Graphics/SVG/1.1/DTD/svg11.dtd">
<!-- Creator: CorelDRAW 2020 (64 Bit) -->
<svg xmlns="http://www.w3.org/2000/svg" xml:space="preserve" width="297mm" height="210mm" version="1.1" style="shape-rendering:geometricPrecision; text-rendering:geometricPrecision; image-rendering:optimizeQuality; fill-rule:evenodd; clip-rule:evenodd"
viewBox="0 0 29700 21000"
 xmlns:xlink="http://www.w3.org/1999/xlink"
 xmlns:xodm="http://www.corel.com/coreldraw/odm/2003">
 <defs>
  <style type="text/css">
   <![CDATA[
    .fil0 {fill:#30598D;fill-rule:nonzero}
   ]]>
  </style>
 </defs>
 <g id="Camada_x0020_1">
  <metadata id="CorelCorpID_0Corel-Layer"/>
  <g id="call.svg">
   <g>
    <path class="fil0" d="M22943.95 14644.75c-30.08,-90.65 -221.48,-224.18 -574.07,-400.29 -95.51,-55.51 -231.62,-130.94 -407.72,-226.64 -176.27,-95.7 -336.26,-183.89 -479.69,-264.48 -143.72,-80.57 -278.37,-158.62 -404.18,-234.05 -20.11,-15.11 -83.05,-59.11 -188.81,-132.29 -105.86,-72.97 -195.13,-127.13 -268.29,-162.45 -73,-35.11 -144.81,-52.78 -215.32,-52.78 -100.7,0 -226.48,71.81 -377.51,215.24 -151.02,143.62 -289.56,299.61 -415.4,468.47 -125.86,168.78 -259.34,324.78 -400.21,468.31 -141.08,143.59 -256.99,215.32 -347.53,215.32 -45.46,0 -102.13,-12.67 -170.05,-37.68 -67.89,-25.16 -119.54,-46.73 -154.99,-64.11 -35.14,-17.75 -95.44,-52.89 -181.11,-105.94 -85.83,-52.89 -133.56,-81.86 -143.62,-86.92 -689.9,-382.83 -1281.59,-820.98 -1775.17,-1314.34 -493.42,-493.66 -931.62,-1085.29 -1314.34,-1775.27 -5.03,-10.08 -34.05,-57.94 -86.89,-143.51 -52.92,-85.65 -88.19,-146 -105.81,-181.35 -17.62,-35.22 -39.03,-86.86 -64.16,-154.83 -25.13,-67.97 -37.76,-124.59 -37.76,-169.97 0,-90.59 71.78,-206.48 215.32,-347.5 143.51,-140.94 299.67,-274.45 468.31,-400.26 168.78,-125.81 324.78,-264.35 468.34,-415.37 143.51,-151.1 215.27,-276.94 215.27,-377.64 0,-70.46 -17.62,-142.29 -52.84,-215.29 -35.24,-73.16 -89.38,-162.43 -162.43,-268.23 -73.08,-105.75 -117.13,-168.65 -132.27,-188.89 -75.46,-125.81 -153.43,-260.51 -234.1,-404.05 -80.67,-143.51 -168.72,-303.48 -264.45,-479.72 -95.65,-176.16 -171.13,-312.18 -226.59,-407.86 -176.13,-352.45 -309.56,-543.9 -400.24,-574.01 -35.26,-15.11 -88.18,-22.73 -158.61,-22.73 -136.05,0 -313.53,25.14 -532.58,75.57 -219.13,50.35 -391.56,103.16 -517.47,158.64 -251.8,105.7 -518.69,412.88 -800.74,921.44 -256.83,473.29 -385.23,941.73 -385.23,1404.99 0,135.86 8.81,268.05 26.43,396.58 17.62,128.4 49.11,273.21 94.48,434.39 45.3,161.13 81.84,280.83 109.46,358.78 27.65,78 79.27,217.73 154.83,419.23 75.46,201.45 120.84,324.78 135.94,370.1 176.24,493.55 385.23,934.16 626.93,1321.96 397.67,644.58 940.36,1310.72 1627.74,1998.16 687.41,687.39 1353.42,1230.05 1998.05,1627.88 387.75,241.67 828.52,450.64 1321.99,627.01 45.35,15.03 168.67,60.3 370.05,136.02 201.45,75.51 341.23,127.13 419.23,154.83 78.03,27.73 197.75,64.29 358.75,109.67 161.34,45.38 306.02,76.86 434.42,94.62 128.48,17.38 260.69,26.35 396.58,26.35 463.23,0 931.7,-128.48 1405.07,-385.29 508.5,-281.94 815.6,-548.88 921.36,-800.87 55.62,-125.78 108.29,-298.26 158.64,-517.39 50.51,-219.02 75.59,-396.48 75.59,-532.5 0.18,-70.71 -7.42,-123.5 -22.6,-159.06z"/>
   </g>
   <g>
   </g>
   <g>
   </g>
   <g>
   </g>
   <g>
   </g>
   <g>
   </g>
   <g>
   </g>
   <g>
   </g>
   <g>
   </g>
   <g>
   </g>
   <g>
   </g>
   <g>
   </g>
   <g>
   </g>
   <g>
   </g>
   <g>
   </g>
   <g>
   </g>
  </g>
 </g>
</svg>
