<?xml version="1.0" encoding="UTF-8"?>
<!DOCTYPE svg PUBLIC "-//W3C//DTD SVG 1.1//EN" "http://www.w3.org/Graphics/SVG/1.1/DTD/svg11.dtd">
<!-- Creator: CorelDRAW 2020 (64 Bit) -->
<svg xmlns="http://www.w3.org/2000/svg" xml:space="preserve" width="297mm" height="210mm" version="1.1" style="shape-rendering:geometricPrecision; text-rendering:geometricPrecision; image-rendering:optimizeQuality; fill-rule:evenodd; clip-rule:evenodd"
viewBox="0 0 29700 21000"
 xmlns:xlink="http://www.w3.org/1999/xlink"
 xmlns:xodm="http://www.corel.com/coreldraw/odm/2003">
 <defs>
  <style type="text/css">
   <![CDATA[
    .fil0 {fill:#30598D;fill-rule:nonzero}
   ]]>
  </style>
 </defs>
 <g id="Camada_x0020_1">
  <metadata id="CorelCorpID_0Corel-Layer"/>
  <g id="location.svg">
   <g>
    <path class="fil0" d="M11923.82 4577.99c-755.33,-755.46 -1666.93,-1133.08 -2734.55,-1133.08 -1067.67,0 -1979.16,377.69 -2734.55,1133.08 -755.36,755.36 -1133.08,1666.88 -1133.08,2734.55 0,548.98 83.08,999.65 249.21,1352.18l2757.22 5846.92c75.57,166.05 192.7,296.99 351.31,392.59 158.64,95.7 328.59,143.62 509.93,143.62 181.29,0 351.31,-47.92 509.93,-143.62 158.64,-95.59 278.16,-226.54 358.75,-392.59l2749.5 -5846.92c166.21,-352.53 249.34,-803.22 249.34,-1352.18 0.15,-1067.67 -377.49,-1979.08 -1133.01,-2734.55zm-1367.34 4101.84c-377.64,377.61 -833.36,566.5 -1367.21,566.5 -533.85,0 -989.57,-188.89 -1367.31,-566.5 -377.69,-377.75 -566.58,-833.46 -566.58,-1367.31 0,-533.8 188.89,-989.59 566.58,-1367.23 377.75,-377.69 833.54,-566.58 1367.31,-566.58 533.85,0 989.57,188.89 1367.21,566.58 377.67,377.61 566.55,833.44 566.55,1367.23 0,533.79 -188.86,989.48 -566.55,1367.31z"/>
   </g>
   <g>
   </g>
   <g>
   </g>
   <g>
   </g>
   <g>
   </g>
   <g>
   </g>
   <g>
   </g>
   <g>
   </g>
   <g>
   </g>
   <g>
   </g>
   <g>
   </g>
   <g>
   </g>
   <g>
   </g>
   <g>
   </g>
   <g>
   </g>
   <g>
   </g>
  </g>
 </g>
</svg>
