<?xml version="1.0" encoding="UTF-8"?>
<!DOCTYPE svg PUBLIC "-//W3C//DTD SVG 1.1//EN" "http://www.w3.org/Graphics/SVG/1.1/DTD/svg11.dtd">
<!-- Creator: CorelDRAW 2020 (64 Bit) -->
<svg xmlns="http://www.w3.org/2000/svg" xml:space="preserve" width="297mm" height="210mm" version="1.1" style="shape-rendering:geometricPrecision; text-rendering:geometricPrecision; image-rendering:optimizeQuality; fill-rule:evenodd; clip-rule:evenodd"
viewBox="0 0 29700 21000"
 xmlns:xlink="http://www.w3.org/1999/xlink"
 xmlns:xodm="http://www.corel.com/coreldraw/odm/2003">
 <defs>
  <style type="text/css">
   <![CDATA[
    .fil0 {fill:#30598D;fill-rule:nonzero}
   ]]>
  </style>
 </defs>
 <g id="Camada_x0020_1">
  <metadata id="CorelCorpID_0Corel-Layer"/>
  <g id="mail.svg">
   <g>
    <g>
     <path class="fil0" d="M9121.74 10773.99c171.24,120.84 687.41,479.72 1548.55,1076.46 861.17,596.74 1520.88,1056.22 1979.16,1378.45 50.35,35.32 157.32,112.1 320.97,230.45 163.67,118.43 299.67,214.13 407.88,287.13 108.29,72.97 239.21,154.83 392.88,245.45 153.62,90.54 298.42,158.64 434.39,203.73 136,45.46 261.88,67.97 377.69,67.97l7.6 0 7.62 0c115.81,0 241.75,-22.54 377.75,-67.97 135.92,-45.09 280.86,-113.27 434.34,-203.73 153.56,-90.73 284.48,-172.51 392.77,-245.45 108.29,-73 244.18,-168.7 407.91,-287.13 163.62,-118.45 270.72,-195.13 321.07,-230.45 463.23,-322.24 1641.77,-1140.62 3535.23,-2455.07 367.61,-256.73 674.74,-566.5 921.46,-929.11 246.91,-362.45 370.23,-742.69 370.23,-1140.49 0,-332.42 -119.67,-616.98 -358.91,-853.65 -239.21,-236.72 -522.53,-355.02 -849.76,-355.02l-11119.51 0c-387.75,0 -686.14,130.92 -895.14,392.75 -208.96,261.88 -313.45,589.22 -313.45,982 0,317.26 138.54,661.06 415.48,1031.19 276.91,370.15 571.61,661 883.79,872.49z"/>
     <path class="fil0" d="M20603.75 11582.18c-1651.64,1117.89 -2905.76,1986.68 -3761.77,2606.17 -287.05,211.43 -519.91,376.48 -698.74,494.74 -178.83,118.35 -416.67,239.21 -713.85,362.53 -297.07,123.51 -573.93,185.08 -830.82,185.08l-7.68 0.01 -7.6 0c-256.83,0 -533.85,-61.57 -830.92,-185.08 -297.07,-123.32 -535.07,-244.18 -713.85,-362.53 -178.73,-118.27 -411.67,-283.32 -698.69,-494.74 -679.9,-498.53 -1931.33,-1367.37 -3754.33,-2606.17 -287.12,-191.25 -541.44,-410.46 -763.03,-657.18l0 5997.71c0,332.58 118.3,616.98 355.02,853.68 236.67,236.78 521.26,355.12 853.65,355.12l11119.54 0c332.32,0 616.88,-118.35 853.57,-355.12 236.78,-236.78 355.02,-521.07 355.02,-853.68l0 -5997.71c-216.59,241.62 -468.31,460.82 -755.52,657.17z"/>
    </g>
   </g>
   <g>
   </g>
   <g>
   </g>
   <g>
   </g>
   <g>
   </g>
   <g>
   </g>
   <g>
   </g>
   <g>
   </g>
   <g>
   </g>
   <g>
   </g>
   <g>
   </g>
   <g>
   </g>
   <g>
   </g>
   <g>
   </g>
   <g>
   </g>
   <g>
   </g>
  </g>
 </g>
</svg>
